# xmcd CD database file
#
# Track frame offsets:
#	150
#	17862
#	36065
#	56522
#
# Disc length: 986 seconds
#
# Revision: 0
# Processed by: cddbd v1.5.1PL2 Copyright (c) Steve Scherf et al.
# Submitted via: CDex 1.51
#
DISCID=2a03d804
DTITLE=Keith Urban - You'll think of me
DYEAR=2006
DGENRE=Country
TTITLE0=You'll think of me (Jeremy Wheatley Mix)
TTITLE1=You'll think of me (Live)
TTITLE2=If you wanna stay
TTITLE3=What about me
EXTD=YEAR: 2006
EXTT0=
EXTT1=
EXTT2=
EXTT3=
PLAYORDER=
